<svg xmlns="http://www.w3.org/2000/svg" width="188" height="188" viewBox="0 0 188 188">
    <g fill="none" fill-rule="nonzero">
        <path fill="#125DB5" d="M0 0h188v188H0z"/>
        <path fill="#FFF" d="M154.72 111.012l-8.155-.012c-9.162 0-15.083 5.7-15.083 14.52v6.695h-8.2c-.708 0-1.282.539-1.282 1.203v9.7c0 .665.574 1.203 1.282 1.203h8.2v24.476c0 .665.574 1.203 1.282 1.203h10.698c.709 0 1.283-.539 1.283-1.203v-24.476h9.587c.708 0 1.282-.538 1.282-1.203l.004-9.7c0-.319-.136-.625-.376-.85a1.327 1.327 0 0 0-.907-.353h-9.59v-5.676c0-2.727.692-4.112 4.48-4.112l5.493-.002c.708 0 1.282-.539 1.282-1.203v-9.007c0-.663-.573-1.201-1.28-1.203z"/>
    </g>
</svg>
