<svg xmlns="http://www.w3.org/2000/svg" width="188" height="188" viewBox="0 0 188 188">
    <g fill="none" fill-rule="nonzero">
        <path fill="#FF8D00" d="M0 0h188v188H0z"/>
        <path fill="#FFF" d="M117.641 128.784c-2.475-4.24-5.832-7.597-10.072-10.072-4.24-2.475-8.87-3.712-13.892-3.712-5.021 0-9.653 1.237-13.893 3.712s-7.597 5.832-10.072 10.072c-2.475 4.24-3.712 8.871-3.712 13.892 0 6.03 1.76 11.454 5.28 16.27 3.519 4.818 8.066 8.151 13.64 10 .648.121 1.128.037 1.44-.251a1.41 1.41 0 0 0 .47-1.08l-.02-1.947a321.843 321.843 0 0 1-.017-3.206l-.83.143c-.528.097-1.194.138-2 .126a15.239 15.239 0 0 1-2.504-.252 5.597 5.597 0 0 1-2.414-1.08 4.572 4.572 0 0 1-1.586-2.216l-.36-.83c-.24-.552-.618-1.165-1.135-1.837-.517-.673-1.04-1.13-1.568-1.37l-.252-.18a2.646 2.646 0 0 1-.468-.433 1.977 1.977 0 0 1-.324-.505c-.073-.168-.013-.306.18-.415.192-.108.54-.16 1.045-.16l.72.107c.48.096 1.075.384 1.784.865a5.816 5.816 0 0 1 1.748 1.873c.553.985 1.219 1.736 2 2.253.78.516 1.567.774 2.36.774.793 0 1.477-.06 2.054-.18.576-.12 1.117-.3 1.622-.54.216-1.61.805-2.848 1.765-3.712-1.369-.144-2.6-.361-3.693-.65-1.093-.288-2.222-.756-3.387-1.405-1.166-.649-2.133-1.454-2.902-2.414-.768-.962-1.4-2.223-1.891-3.784-.493-1.562-.739-3.364-.739-5.406 0-2.908.95-5.382 2.847-7.424-.889-2.186-.805-4.636.252-7.351.697-.217 1.73-.054 3.1.486 1.369.54 2.372 1.004 3.009 1.388.637.384 1.147.709 1.531.973a25.59 25.59 0 0 1 6.92-.937c2.378 0 4.684.312 6.92.937l1.369-.865c.936-.577 2.042-1.105 3.315-1.586 1.273-.48 2.247-.612 2.92-.396 1.08 2.715 1.177 5.165.287 7.351 1.898 2.043 2.848 4.517 2.848 7.424 0 2.042-.247 3.85-.74 5.424-.491 1.574-1.128 2.834-1.908 3.784-.782.949-1.755 1.748-2.92 2.396-1.165.649-2.295 1.117-3.388 1.406-1.093.288-2.324.505-3.693.65 1.249 1.08 1.873 2.786 1.873 5.116v7.603c0 .432.15.793.451 1.081.3.288.775.372 1.423.252 5.575-1.85 10.121-5.183 13.64-10 3.52-4.817 5.28-10.24 5.28-16.271-.001-5.02-1.24-9.65-3.713-13.89z"/>
    </g>
</svg>
