<svg xmlns="http://www.w3.org/2000/svg" xmlns:xlink="http://www.w3.org/1999/xlink" width="387" height="73" viewBox="0 0 387 73">
    <defs>
        <path id="a" d="M0 .056h121.682v72.74H0z"/>
        <path id="c" d="M.14.125h52.254v52.521H.14z"/>
    </defs>
    <g fill="none" fill-rule="evenodd">
        <path fill="#FFF" d="M69.047 26.476a1.727 1.727 0 1 1-3.412.548 1.724 1.724 0 0 1 1.432-1.975 1.727 1.727 0 0 1 1.98 1.427"/>
        <g transform="translate(0 .098)">
            <mask id="b" fill="#fff">
                <use xlink:href="#a"/>
            </mask>
            <path fill="#FFF" d="M74.927 32.867c.03.281.057.554.084.817.067.667.007 1.048-.942 1.69l-2.559 1.478c-.925.521-1.399.33-1.936-.073a25.03 25.03 0 0 0-.651-.469l-4.018 2.965s-1.247-3.51-1.316-4.673c-.039-.632.19-1.723.43-2.662a7.96 7.96 0 0 1-.258-.424c-3.776-6.685-1.326-11.334-.834-12.145.049-.08.137-.13.231-.131.948-.007 6.178.27 9.982 7.006.072.128.141.257.207.387.906.267 1.907.61 2.414.952.97.65 3.366 3.505 3.366 3.505l-4.2 1.777zm34.687 5.005a.512.512 0 0 1-.342-.497c.004-.167.006-.334.006-.503 0-11.998-9.75-21.724-21.776-21.724-1.68 0-3.312.19-4.882.548a.519.519 0 0 1-.56-.248C76.693 6.244 66.7.056 55.26.056c-14.692 0-26.995 10.202-30.178 23.893a.518.518 0 0 1-.51.403l-.29-.002C10.87 24.35 0 35.195 0 48.573c0 13.378 10.87 24.223 24.282 24.223.134 0 .266 0 .4-.003h.007c2.88-.521 44.61.378 47.952-32.274.389-3.79.904-3.86 3.576-2.335 1.327.758 15.668 10.335 18.434 34.263.023.197.285.333.488.333h.017c.252-.01.507.016.762.016 20.852 0 25.764-8.042 25.764-17.962 0-7.845-5.04-14.514-12.068-16.962z" mask="url(#b)"/>
        </g>
        <path fill="#FFF" d="M173.543 24.728c1.052-.052 1.673-.015 1.768-.015h9.87c.53 0 .96.43.96.96v13.115a.96.96 0 0 1-.96.959h-22.63a.96.96 0 0 1-.938-1.167l.31-1.397c.767-3.552 1.473-5.72 1.744-6.483.534-1.509 1.096-2.845 2.507-3.853.485-.347.847-.687 1.815-1.073 1.179-.469 2.143-.65 2.53-.732.443-.094 2.275-.277 3.024-.314m24.784-8.77a6.297 6.297 0 0 0-3.413-3.403 6.415 6.415 0 0 0-2.47-.485h-17.133c-3.723 0-7.216.647-10.384 1.926-3.174 1.282-5.968 3.1-8.302 5.404-2.337 2.308-4.186 5.097-5.495 8.289-1.305 3.182-2.6 8.396-3.434 12.066-1.085 4.77-4.772 19.037-5.873 23.283a.959.959 0 0 0 .935 1.198l11.431-.046a.96.96 0 0 0 .928-.722l2.84-11.147a.961.961 0 0 1 .93-.723h26.294c.53 0 .96.43.96.959v10.725c0 .53.431.959.962.959h10.751a.96.96 0 0 0 .961-.959V18.424a6.37 6.37 0 0 0-.488-2.465M261.072 12.07a.96.96 0 0 1 .961.959v44.856c0 .882-.163 1.724-.488 2.499a6.106 6.106 0 0 1-1.386 2.043 6.422 6.422 0 0 1-2.027 1.327 6.402 6.402 0 0 1-2.47.487h-19.777c-1.994 0-4.039-.22-6.075-.648a27.404 27.404 0 0 1-5.98-2.013 25.912 25.912 0 0 1-5.457-3.477 22.974 22.974 0 0 1-4.517-5.055c-1.283-1.938-2.303-4.177-3.028-6.653-.725-2.467-1.092-5.24-1.092-8.24V13.03c0-.53.43-.959.962-.959h11.866c.53 0 .961.43.961.959v24.794c0 2.208.3 4.072.889 5.537.594 1.48 1.349 2.718 2.24 3.684.899.972 1.887 1.74 2.94 2.283 1.134.586 2.217 1.025 3.218 1.3 1.018.283 1.912.46 2.66.528 1.12.102 1.452.11 1.528.11h10.627a.96.96 0 0 0 .961-.961l-.084-37.273a.96.96 0 0 1 .962-.96h11.606zM324.953 48.087c0 1.921-.251 3.687-.749 5.252-.494 1.552-1.162 2.952-1.985 4.159a13.607 13.607 0 0 1-2.956 3.142 17.6 17.6 0 0 1-3.38 2.044c-1.164.53-2.363.926-3.565 1.178-1.194.252-2.347.379-3.423.379h-34.838a.96.96 0 0 1-.962-.959V52.557c0-.53.43-.959.962-.959h34.838c1.139 0 1.96-.285 2.515-.871.585-.62.869-1.482.869-2.64a4.53 4.53 0 0 0-.251-1.554 3.208 3.208 0 0 0-.66-1.093 2.747 2.747 0 0 0-.996-.67c-.426-.172-.923-.26-1.477-.26h-20.182c-1.606 0-3.343-.284-5.165-.843a15.81 15.81 0 0 1-5.217-2.782c-1.615-1.29-2.97-2.986-4.026-5.042-1.071-2.086-1.615-4.628-1.615-7.554s.544-5.463 1.617-7.54c1.054-2.039 2.406-3.733 4.018-5.031 1.593-1.285 3.35-2.23 5.223-2.805 1.822-.56 3.559-.843 5.165-.843h30.858a.96.96 0 0 1 .961.96v10.724a.96.96 0 0 1-.961.96h-30.858c-1.474 0-2.113.506-2.466.887-.594.644-.884 1.523-.884 2.688 0 1.176.283 2.042.862 2.65.556.58 1.368.86 2.488.86l20.298.002c1.066.025 2.205.171 3.38.433 1.193.266 2.392.681 3.565 1.233a17.307 17.307 0 0 1 3.37 2.107c1.09.867 2.065 1.919 2.901 3.124.84 1.214 1.513 2.615 1.996 4.164.485 1.553.73 3.31.73 5.225"/>
        <g transform="translate(334.38 11.77)">
            <mask id="d" fill="#fff">
                <use xlink:href="#c"/>
            </mask>
            <path fill="#FFF" d="M52.386 25.39c.006.043.008.086.008.13v1.04c0 3-.366 5.773-1.092 8.24-.725 2.476-1.744 4.715-3.028 6.653a22.973 22.973 0 0 1-4.517 5.055 25.918 25.918 0 0 1-5.457 3.477 27.384 27.384 0 0 1-5.98 2.012c-2.036.43-4.08.65-6.075.65H14.408c-.939 0-1.95-.111-3.005-.328a15.337 15.337 0 0 1-3.168-1.02 14.81 14.81 0 0 1-3.016-1.803 12.578 12.578 0 0 1-2.615-2.744c-.751-1.067-1.358-2.311-1.8-3.694C.366 41.674.14 39.76.14 38.062V14.358c0-.935.111-1.944.327-3 .22-1.062.56-2.126 1.024-3.16a14.319 14.319 0 0 1 1.833-3.02 12.923 12.923 0 0 1 2.757-2.595C7.148 1.835 8.39 1.23 9.763.79a13.1 13.1 0 0 1 1.185-.316 16.26 16.26 0 0 1 3.46-.35H51.07c.53 0 .961.43.961.959v10.99a.96.96 0 0 1-.961.958H14.939c-.416 0-.973.06-1.253.34a.748.748 0 0 0-.088.107c-.218.327-.254.885-.254 1.212v23.106c0 .433.066.772.197 1.015a.91.91 0 0 0 .16.219c.239.238.654.358 1.238.358h12.35c.372 0 .88-.02 1.249-.073.306-.043.806-.18 1.082-.263.994-.298 1.774-.519 3.08-1.263 1.028-.587 1.876-1.37 2.775-2.341.388-.42.75-.891 1.083-1.411.408-.637-.055-1.473-.813-1.473-5.222 0-9.456-4.224-9.456-9.434v-2.317c0-.53.43-.96.961-.96h18.817a6.308 6.308 0 0 1 4.552 1.903 6.49 6.49 0 0 1 1.324 1.991c.223.522.371 1.072.443 1.642" mask="url(#d)"/>
        </g>
    </g>
</svg>
