<svg xmlns="http://www.w3.org/2000/svg" width="180" height="188" viewBox="0 0 180 188">
    <g fill="none" fill-rule="nonzero">
        <path fill="#FCDA2F" d="M0 0h188v188H0z"/>
        <path fill="#FFF" d="M124.78 96.122a5.168 5.168 0 0 0-6.514-3.32l-5.209 1.695c-1.153-3.555-2.383-7.335-3.536-10.882l5.208-1.694a5.169 5.169 0 0 0 3.32-6.515 5.168 5.168 0 0 0-6.515-3.318l-5.209 1.693-1.693-5.208a5.169 5.169 0 0 0-9.83 3.196l1.694 5.208-10.881 3.537-1.69-5.21a5.168 5.168 0 0 0-6.515-3.318 5.163 5.163 0 0 0-3.319 6.51l1.694 5.213-5.375 1.748a5.167 5.167 0 0 0-3.207 6.29c.791 2.742 3.704 4.414 6.399 3.54.021-.007 2.136-.693 5.375-1.748l3.536 10.882-5.375 1.748a5.173 5.173 0 0 0-3.206 6.29c.79 2.742 3.703 4.417 6.398 3.54.022-.008 2.136-.693 5.379-1.749l1.748 5.376a5.173 5.173 0 0 0 6.29 3.206c2.742-.79 4.417-3.703 3.54-6.398l-1.745-5.376c3.555-1.153 7.334-2.383 10.881-3.536l1.749 5.375a5.173 5.173 0 0 0 6.29 3.207c2.741-.79 4.417-3.704 3.54-6.399-.008-.021-.694-2.132-1.75-5.375l5.21-1.694a5.171 5.171 0 0 0 3.318-6.514zm-33.244 4.296C90.38 96.864 89.153 93.084 88 89.537c3.555-1.154 7.334-2.384 10.881-3.537l3.537 10.882-10.882 3.536z"/>
    </g>
</svg>
