<svg xmlns="http://www.w3.org/2000/svg" width="188" height="188" viewBox="0 0 188 188">
    <g fill="none" fill-rule="nonzero">
        <path fill="#57C4EC" d="M0 0h188v188H0z"/>
        <g fill="#FFF" transform="translate(63 65)">
            <path d="M61.507 31.426c-.251.182-.502.354-.752.526V6.412C60.755 2.864 58.12 0 54.877 0H9.156C5.913 0 3.278 2.865 3.278 6.411v25.565c-.26-.18-.522-.36-.785-.55-1.948-1.376-3.225.497-2.03 2.287 2.324 2.882 6.744 6.461 13.521 9.277-7.17 24.718 17.5 28.644 17.123 15.97l.024-12.461c.648.154 1.21.305 1.738.437l.023 12.025c-.377 12.673 24.31 8.747 17.124-15.97 6.777-2.817 11.198-6.396 13.52-9.278 1.196-1.79-.08-3.662-2.029-2.287zm-24.341 6.296c-3.018-.154-4.136 1.16-4.285 3.183a22.311 22.311 0 0 1-2.23-1.858 8.357 8.357 0 0 0-.363-.325c-.662-.706-1.754-1.085-3.451-1-4.045.127-11.448.94-20.07-3.632V9.31c0-4.49 1.13-5.897 5.19-5.897h40.466c3.848 0 5.206 1.673 5.206 5.897v24.573c-8.791 4.808-16.359 3.97-20.463 3.84z"/>
            <path d="M41.001 20C36.585 20 33 23.357 33 27.5s3.585 7.5 8.001 7.5C45.417 35 49 31.643 49 27.5S45.417 20 41.001 20z"/>
            <ellipse cx="23" cy="27.5" rx="8" ry="7.5"/>
        </g>
    </g>
</svg>
